<?xml version="1.0" encoding="UTF-8"?>
<svg id="Capa_2" data-name="Capa 2" xmlns="http://www.w3.org/2000/svg" viewBox="0 0 798.44 763.19">
  <defs>
    <style>
      .cls-1 {
        fill: #fff;
        fill-rule: evenodd;
        stroke-width: 0px;
      }
    </style>
  </defs>
  <g id="Capa_1-2" data-name="Capa 1">
    <g id="_7935ec95c421cee6d86eb22ecd125aef" data-name="7935ec95c421cee6d86eb22ecd125aef">
      <path class="cls-1" d="M181.26,763.19V248.24H10.12v514.94h171.14ZM95.7,177.96c59.66,0,96.82-39.57,96.82-88.99C191.4,38.46,155.37,0,96.82,0,38.27,0,0,38.46,0,88.97s37.14,88.99,94.58,88.99h1.13ZM275.97,763.19s2.25-466.63,0-514.94h171.17v74.68h-1.14c22.51-35.14,63.05-86.77,155.38-86.77,112.63,0,197.06,73.6,197.06,231.77v295.27h-171.14v-275.48c0-69.22-24.76-116.45-86.71-116.45-47.27,0-75.44,31.84-87.82,62.63-4.53,10.96-5.63,26.35-5.63,41.74v287.57h-171.17Z"/>
    </g>
  </g>
</svg>